<svg width="24" height="24" viewBox="0 0 24 24" fill="none" xmlns="http://www.w3.org/2000/svg">
<g clip-path="url(#clip0_173_607)">
<path d="M14 6C14 5.46957 13.7893 4.96086 13.4142 4.58579C13.0391 4.21071 12.5304 4 12 4C11.4696 4 10.9609 4.21071 10.5858 4.58579C10.2107 4.96086 10 5.46957 10 6C10 7.667 10.67 9 12 10H11.992M11.992 10L19.963 14.428C20.2749 14.6012 20.5349 14.8548 20.7158 15.1623C20.8967 15.4698 20.9921 15.8202 20.992 16.177V17C20.992 17.5304 20.7813 18.0391 20.4062 18.4142C20.0311 18.7893 19.5224 19 18.992 19H4.992C4.46157 19 3.95286 18.7893 3.57779 18.4142C3.20272 18.0391 2.992 17.5304 2.992 17V16.177C2.99191 15.8202 3.08728 15.4698 3.26821 15.1623C3.44915 14.8548 3.70906 14.6012 4.021 14.428L11.992 10Z" stroke="white" stroke-width="2" stroke-linecap="round" stroke-linejoin="round"/>
</g>
<defs>
<clipPath id="clip0_173_607">
<rect width="24" height="24" fill="white"/>
</clipPath>
</defs>
</svg>
