<svg width="48" height="48" viewBox="0 0 48 48" fill="none" xmlns="http://www.w3.org/2000/svg">
<circle cx="24" cy="24" r="24" fill="white"/>
<g clip-path="url(#clip0_3_37)">
<path d="M31.5 24.572L24 32L16.5 24.572C16.0053 24.0906 15.6156 23.512 15.3555 22.8726C15.0954 22.2333 14.9706 21.5469 14.9887 20.8569C15.0069 20.1669 15.1678 19.4881 15.4612 18.8633C15.7545 18.2385 16.1741 17.6812 16.6935 17.2266C17.2128 16.7719 17.8207 16.4297 18.4788 16.2215C19.1369 16.0133 19.831 15.9436 20.5174 16.0168C21.2037 16.09 21.8675 16.3046 22.4669 16.6469C23.0662 16.9892 23.5882 17.452 24 18.006C24.4135 17.456 24.9361 16.9973 25.5351 16.6586C26.1341 16.3199 26.7965 16.1084 27.4809 16.0375C28.1654 15.9666 28.8571 16.0377 29.5128 16.2464C30.1685 16.4551 30.774 16.7969 31.2915 17.2504C31.8091 17.7038 32.2274 18.2593 32.5204 18.8819C32.8134 19.5045 32.9747 20.1809 32.9943 20.8687C33.0139 21.5565 32.8913 22.241 32.6341 22.8792C32.377 23.5175 31.9909 24.0958 31.5 24.578" stroke="#3D4FBD" stroke-width="2" stroke-linecap="round" stroke-linejoin="round"/>
</g>
<defs>
<clipPath id="clip0_3_37">
<rect width="24" height="24" fill="white" transform="translate(12 12)"/>
</clipPath>
</defs>
</svg>
