<svg width="48" height="48" viewBox="0 0 48 48" fill="none" xmlns="http://www.w3.org/2000/svg">
<circle cx="24" cy="24" r="24" fill="white"/>
<g clip-path="url(#clip0_3_138)">
<path d="M18.979 15.074C19.8641 14.9232 20.7717 14.973 21.635 15.2196C22.4982 15.4662 23.2952 15.9034 23.967 16.499L24.004 16.532L24.038 16.502C24.6792 15.9393 25.433 15.5198 26.2492 15.2715C27.0653 15.0232 27.9251 14.9518 28.771 15.062L29.017 15.098C30.0833 15.2821 31.08 15.7512 31.9015 16.4555C32.7229 17.1598 33.3387 18.0732 33.6834 19.0988C34.0282 20.1245 34.0892 21.2244 33.8599 22.2819C33.6306 23.3394 33.1196 24.3152 32.381 25.106L32.201 25.291L32.153 25.332L24.703 32.711C24.5311 32.8812 24.3033 32.9832 24.0619 32.9983C23.8205 33.0134 23.5818 32.9405 23.39 32.793L23.296 32.711L15.803 25.289C15.0092 24.5167 14.4447 23.5397 14.172 22.4663C13.8992 21.3929 13.9289 20.2649 14.2577 19.2073C14.5865 18.1497 15.2017 17.2038 16.035 16.4743C16.8683 15.7448 17.8872 15.2601 18.979 15.074Z" fill="#3D4FBD"/>
</g>
<defs>
<clipPath id="clip0_3_138">
<rect width="24" height="24" fill="white" transform="translate(12 12)"/>
</clipPath>
</defs>
</svg>
