<svg width="24" height="24" viewBox="0 0 24 24" fill="none" xmlns="http://www.w3.org/2000/svg">
<g clip-path="url(#clip0_1_439)">
<path d="M18.364 4.63599C20.0163 6.28813 20.9613 8.51811 20.9992 10.8544C21.0371 13.1907 20.1649 15.4502 18.567 17.155L18.364 17.365L14.121 21.607C13.5826 22.145 12.8599 22.4583 12.0991 22.4834C11.3384 22.5084 10.5966 22.2434 10.024 21.742L9.87999 21.607L5.63599 17.364C3.94816 15.6762 2.99994 13.387 2.99994 11C2.99994 8.61303 3.94816 6.32383 5.63599 4.63599C7.32383 2.94816 9.61303 1.99994 12 1.99994C14.387 1.99994 16.6762 2.94816 18.364 4.63599ZM12 7.99999C11.606 7.99999 11.2159 8.07759 10.8519 8.22836C10.488 8.37912 10.1572 8.6001 9.87867 8.87867C9.6001 9.15725 9.37912 9.48797 9.22836 9.85194C9.07759 10.2159 8.99999 10.606 8.99999 11C8.99999 11.394 9.07759 11.7841 9.22836 12.148C9.37912 12.512 9.6001 12.8427 9.87867 13.1213C10.1572 13.3999 10.488 13.6209 10.8519 13.7716C11.2159 13.9224 11.606 14 12 14C12.7956 14 13.5587 13.6839 14.1213 13.1213C14.6839 12.5587 15 11.7956 15 11C15 10.2043 14.6839 9.44128 14.1213 8.87867C13.5587 8.31606 12.7956 7.99999 12 7.99999Z" fill="#F7FBFD"/>
</g>
<defs>
<clipPath id="clip0_1_439">
<rect width="24" height="24" fill="white"/>
</clipPath>
</defs>
</svg>
