<svg width="400" height="515" viewBox="0 0 400 515" fill="none" xmlns="http://www.w3.org/2000/svg">
<path fill-rule="evenodd" clip-rule="evenodd" d="M400 200C400 89.5431 310.457 0 200 0C89.5431 0 0 89.5431 0 200C0 310.457 89.5431 400 200 400H200.011C310.463 399.994 400 310.453 400 200ZM86.563 220C89.1057 264.93 100.124 305.486 116.773 336.677C70.7341 308.583 40 257.881 40 200C40 142.119 70.7341 91.4172 116.773 63.3227C100.124 94.5139 89.1057 135.07 86.563 180H126.634C129.26 138.916 139.815 103.52 154.141 78.3868C162.965 62.9056 171.91 53.2201 180 47.4508V180H220V47.4508C228.09 53.2201 237.035 62.9056 245.859 78.3868C260.185 103.52 270.74 138.916 273.366 180H313.437C310.895 135.07 299.876 94.5141 283.227 63.3229C329.266 91.4174 360 142.12 360 200C360 257.88 329.266 308.583 283.227 336.677C299.876 305.486 310.895 264.93 313.437 220H273.366C270.74 261.084 260.185 296.48 245.859 321.613C237.035 337.094 228.09 346.78 220 352.549V220H180V352.549C171.91 346.78 162.965 337.094 154.141 321.613C139.815 296.48 129.26 261.084 126.634 220H86.563Z" fill="white"/>
<path d="M15.4269 426.456H3.23486L21.2829 495H33.6669L47.6829 442.584H47.8749L61.6029 495H73.7949L92.7069 426.456H80.5149L67.7469 478.872H67.5549L54.1149 426.456H41.8269L28.0029 478.872H27.8109L15.4269 426.456Z" fill="white"/>
<path fill-rule="evenodd" clip-rule="evenodd" d="M136.323 486.84C136.003 486.264 135.843 485.304 135.843 483.96V458.424C135.843 455.8 135.267 453.592 134.115 451.8C132.963 449.944 131.427 448.44 129.507 447.288C127.651 446.136 125.539 445.304 123.171 444.792C120.803 444.28 118.403 444.024 115.971 444.024C113.219 444.024 110.531 444.28 107.907 444.792C105.283 445.304 102.915 446.2 100.803 447.48C98.7551 448.76 97.0591 450.456 95.7151 452.568C94.3711 454.68 93.6031 457.336 93.4111 460.536H104.355C104.611 457.848 105.731 455.864 107.715 454.584C109.699 453.304 112.227 452.664 115.299 452.664C116.387 452.664 117.539 452.76 118.755 452.952C119.971 453.08 121.059 453.4 122.019 453.912C123.043 454.36 123.875 455.032 124.515 455.928C125.219 456.824 125.571 457.976 125.571 459.384C125.571 460.984 125.155 462.2 124.323 463.032C123.555 463.8 122.467 464.376 121.059 464.76C119.715 465.144 118.147 465.432 116.355 465.624C114.563 465.752 112.675 466.008 110.691 466.392C108.387 466.648 106.083 467.032 103.779 467.544C101.539 467.992 99.4911 468.76 97.6351 469.848C95.8431 470.936 94.3711 472.44 93.2191 474.36C92.1311 476.28 91.5871 478.776 91.5871 481.848C91.5871 484.28 92.0351 486.424 92.9311 488.28C93.8911 490.072 95.1391 491.576 96.6751 492.792C98.2751 493.944 100.099 494.808 102.147 495.384C104.195 496.024 106.339 496.344 108.579 496.344C111.523 496.344 114.563 495.864 117.699 494.904C120.899 493.944 123.587 492.408 125.763 490.296C126.211 492.536 127.171 494.104 128.643 495C130.115 495.896 131.971 496.344 134.211 496.344C134.659 496.344 135.203 496.312 135.843 496.248C136.483 496.184 137.123 496.088 137.763 495.96C138.403 495.832 139.011 495.672 139.587 495.48C140.227 495.352 140.739 495.224 141.123 495.096V487.512C140.547 487.64 140.035 487.704 139.587 487.704H138.435C137.411 487.704 136.707 487.416 136.323 486.84ZM118.755 472.152C121.187 471.896 123.235 471.224 124.899 470.136V478.296C124.899 480.024 124.483 481.496 123.651 482.712C122.819 483.864 121.763 484.824 120.483 485.592C119.267 486.36 117.955 486.904 116.547 487.224C115.139 487.544 113.827 487.704 112.611 487.704C111.651 487.704 110.563 487.608 109.347 487.416C108.195 487.224 107.107 486.904 106.083 486.456C105.123 485.944 104.291 485.272 103.587 484.44C102.883 483.608 102.531 482.584 102.531 481.368C102.531 479.96 102.755 478.776 103.203 477.816C103.715 476.792 104.387 475.992 105.219 475.416C106.051 474.776 107.011 474.296 108.099 473.976C109.187 473.592 110.307 473.304 111.459 473.112C113.891 472.664 116.323 472.344 118.755 472.152Z" fill="white"/>
<path d="M142.147 445.368H154.147L167.107 482.424H167.299L179.875 445.368H191.299L172.003 497.688C171.107 499.928 170.211 502.072 169.315 504.12C168.483 506.168 167.427 507.96 166.147 509.496C164.931 511.096 163.395 512.344 161.539 513.24C159.683 514.2 157.315 514.68 154.435 514.68C151.875 514.68 149.347 514.488 146.851 514.104V504.888C147.747 505.016 148.611 505.144 149.443 505.272C150.275 505.464 151.139 505.56 152.035 505.56C153.315 505.56 154.371 505.4 155.203 505.08C156.035 504.76 156.707 504.28 157.219 503.64C157.795 503.064 158.275 502.36 158.659 501.528C159.043 500.696 159.395 499.736 159.715 498.648L160.963 494.808L142.147 445.368Z" fill="white"/>
<path d="M202.584 445.368H194.424V453.528H202.584V495H213.528V453.528H222.84V445.368H213.528V440.28C213.528 438.232 214.04 436.856 215.064 436.152C216.152 435.448 217.432 435.096 218.904 435.096C219.992 435.096 220.92 435.16 221.688 435.288C222.52 435.352 223.288 435.48 223.992 435.672V427.128C222.392 426.68 219.832 426.456 216.312 426.456C214.52 426.456 212.792 426.648 211.128 427.032C209.528 427.352 208.088 428.056 206.808 429.144C205.528 430.168 204.504 431.672 203.736 433.656C202.968 435.576 202.584 438.104 202.584 441.24V445.368Z" fill="white"/>
<path fill-rule="evenodd" clip-rule="evenodd" d="M271.169 483.96C271.169 485.304 271.329 486.264 271.649 486.84C272.033 487.416 272.737 487.704 273.761 487.704H274.913C275.361 487.704 275.873 487.64 276.449 487.512V495.096C276.065 495.224 275.553 495.352 274.913 495.48C274.337 495.672 273.729 495.832 273.089 495.96C272.449 496.088 271.809 496.184 271.169 496.248C270.529 496.312 269.985 496.344 269.537 496.344C267.297 496.344 265.441 495.896 263.969 495C262.497 494.104 261.537 492.536 261.089 490.296C258.913 492.408 256.225 493.944 253.025 494.904C249.889 495.864 246.849 496.344 243.905 496.344C241.665 496.344 239.521 496.024 237.473 495.384C235.425 494.808 233.601 493.944 232.001 492.792C230.465 491.576 229.217 490.072 228.257 488.28C227.361 486.424 226.913 484.28 226.913 481.848C226.913 478.776 227.457 476.28 228.545 474.36C229.697 472.44 231.169 470.936 232.961 469.848C234.817 468.76 236.865 467.992 239.105 467.544C241.409 467.032 243.713 466.648 246.017 466.392C248.001 466.008 249.889 465.752 251.681 465.624C253.473 465.432 255.041 465.144 256.385 464.76C257.793 464.376 258.881 463.8 259.649 463.032C260.481 462.2 260.897 460.984 260.897 459.384C260.897 457.976 260.545 456.824 259.841 455.928C259.201 455.032 258.369 454.36 257.345 453.912C256.385 453.4 255.297 453.08 254.081 452.952C252.865 452.76 251.713 452.664 250.625 452.664C247.553 452.664 245.025 453.304 243.041 454.584C241.057 455.864 239.937 457.848 239.681 460.536H228.737C228.929 457.336 229.697 454.68 231.041 452.568C232.385 450.456 234.081 448.76 236.129 447.48C238.241 446.2 240.609 445.304 243.233 444.792C245.857 444.28 248.545 444.024 251.297 444.024C253.729 444.024 256.129 444.28 258.497 444.792C260.865 445.304 262.977 446.136 264.833 447.288C266.753 448.44 268.289 449.944 269.441 451.8C270.593 453.592 271.169 455.8 271.169 458.424V483.96ZM260.225 470.136C258.561 471.224 256.513 471.896 254.081 472.152C251.649 472.344 249.217 472.664 246.785 473.112C245.633 473.304 244.513 473.592 243.425 473.976C242.337 474.296 241.377 474.776 240.545 475.416C239.713 475.992 239.041 476.792 238.529 477.816C238.081 478.776 237.857 479.96 237.857 481.368C237.857 482.584 238.209 483.608 238.913 484.44C239.617 485.272 240.449 485.944 241.409 486.456C242.433 486.904 243.521 487.224 244.673 487.416C245.889 487.608 246.977 487.704 247.937 487.704C249.153 487.704 250.465 487.544 251.873 487.224C253.281 486.904 254.593 486.36 255.809 485.592C257.089 484.824 258.145 483.864 258.977 482.712C259.809 481.496 260.225 480.024 260.225 478.296V470.136Z" fill="white"/>
<path d="M293.217 445.368H282.945V495H293.889V471.384C293.889 468.632 294.241 466.2 294.945 464.088C295.649 461.976 296.609 460.216 297.825 458.808C299.041 457.336 300.449 456.248 302.049 455.544C303.713 454.776 305.473 454.392 307.329 454.392C308.097 454.392 308.865 454.456 309.633 454.584C310.465 454.648 311.265 454.744 312.033 454.872V444.312L310.497 444.12C310.049 444.056 309.185 444.024 307.905 444.024C306.241 444.024 304.609 444.344 303.009 444.984C301.409 445.624 299.937 446.488 298.593 447.576C297.313 448.6 296.193 449.752 295.233 451.032C294.337 452.312 293.729 453.624 293.409 454.968H293.217V445.368Z" fill="white"/>
<path fill-rule="evenodd" clip-rule="evenodd" d="M323.552 473.016C323.552 474.936 323.808 476.792 324.32 478.584C324.896 480.376 325.728 481.944 326.816 483.288C327.904 484.632 329.28 485.72 330.944 486.552C332.608 487.32 334.592 487.704 336.896 487.704C340.096 487.704 342.656 487.032 344.576 485.688C346.56 484.28 348.032 482.2 348.992 479.448H359.36C358.784 482.136 357.792 484.536 356.384 486.648C354.976 488.76 353.28 490.552 351.296 492.024C349.312 493.432 347.072 494.488 344.576 495.192C342.144 495.96 339.584 496.344 336.896 496.344C332.992 496.344 329.536 495.704 326.528 494.424C323.52 493.144 320.96 491.352 318.848 489.048C316.8 486.744 315.232 483.992 314.144 480.792C313.12 477.592 312.608 474.072 312.608 470.232C312.608 466.712 313.152 463.384 314.24 460.248C315.392 457.048 316.992 454.264 319.04 451.896C321.152 449.464 323.68 447.544 326.624 446.136C329.568 444.728 332.896 444.024 336.608 444.024C340.512 444.024 344 444.856 347.072 446.52C350.208 448.12 352.8 450.264 354.848 452.952C356.896 455.64 358.368 458.744 359.264 462.264C360.224 465.72 360.48 469.304 360.032 473.016H323.552ZM349.088 465.816C348.96 464.088 348.576 462.424 347.936 460.824C347.36 459.224 346.528 457.848 345.44 456.696C344.416 455.48 343.136 454.52 341.6 453.816C340.128 453.048 338.464 452.664 336.608 452.664C334.688 452.664 332.928 453.016 331.328 453.72C329.792 454.36 328.448 455.288 327.296 456.504C326.208 457.656 325.312 459.032 324.608 460.632C323.968 462.232 323.616 463.96 323.552 465.816H349.088Z" fill="white"/>
<path d="M378.623 445.368H368.351V495H379.295V471.384C379.295 468.632 379.647 466.2 380.351 464.088C381.055 461.976 382.015 460.216 383.231 458.808C384.447 457.336 385.855 456.248 387.455 455.544C389.119 454.776 390.879 454.392 392.735 454.392C393.503 454.392 394.271 454.456 395.039 454.584C395.871 454.648 396.671 454.744 397.439 454.872V444.312L395.903 444.12C395.455 444.056 394.591 444.024 393.311 444.024C391.647 444.024 390.015 444.344 388.415 444.984C386.815 445.624 385.343 446.488 383.999 447.576C382.719 448.6 381.599 449.752 380.639 451.032C379.743 452.312 379.135 453.624 378.815 454.968H378.623V445.368Z" fill="white"/>
</svg>
