<svg width="395" height="89" viewBox="0 0 395 89" fill="none" xmlns="http://www.w3.org/2000/svg">
<path d="M0 0H12.192L24.576 52.416H24.768L38.592 0H50.88L64.32 52.416H64.512L77.28 0H89.472L70.56 68.544H58.368L44.64 16.128H44.448L30.432 68.544H18.048L0 0Z" fill="white"/>
<path d="M132.608 57.504C132.608 58.848 132.768 59.808 133.088 60.384C133.472 60.96 134.176 61.248 135.2 61.248C135.52 61.248 135.904 61.248 136.352 61.248C136.8 61.248 137.312 61.184 137.888 61.056V68.64C137.504 68.768 136.992 68.896 136.352 69.024C135.776 69.216 135.168 69.376 134.528 69.504C133.888 69.632 133.248 69.728 132.608 69.792C131.968 69.856 131.424 69.888 130.976 69.888C128.736 69.888 126.88 69.44 125.408 68.544C123.936 67.648 122.976 66.08 122.528 63.84C120.352 65.952 117.664 67.488 114.464 68.448C111.328 69.408 108.288 69.888 105.344 69.888C103.104 69.888 100.96 69.568 98.9122 68.928C96.8642 68.352 95.0402 67.488 93.4402 66.336C91.9042 65.12 90.6562 63.616 89.6962 61.824C88.8002 59.968 88.3522 57.824 88.3522 55.392C88.3522 52.32 88.8963 49.824 89.9843 47.904C91.1363 45.984 92.6083 44.48 94.4003 43.392C96.2563 42.304 98.3043 41.536 100.544 41.088C102.848 40.576 105.152 40.192 107.456 39.936C109.44 39.552 111.328 39.296 113.12 39.168C114.912 38.976 116.48 38.688 117.824 38.304C119.232 37.92 120.32 37.344 121.088 36.576C121.92 35.744 122.336 34.528 122.336 32.928C122.336 31.52 121.984 30.368 121.28 29.472C120.64 28.576 119.808 27.904 118.784 27.456C117.824 26.944 116.736 26.624 115.52 26.496C114.304 26.304 113.152 26.208 112.064 26.208C108.992 26.208 106.464 26.848 104.48 28.128C102.496 29.408 101.376 31.392 101.12 34.08H90.1763C90.3683 30.88 91.1362 28.224 92.4802 26.112C93.8242 24 95.5203 22.304 97.5683 21.024C99.6803 19.744 102.048 18.848 104.672 18.336C107.296 17.824 109.984 17.568 112.736 17.568C115.168 17.568 117.568 17.824 119.936 18.336C122.304 18.848 124.416 19.68 126.272 20.832C128.192 21.984 129.728 23.488 130.88 25.344C132.032 27.136 132.608 29.344 132.608 31.968V57.504ZM121.664 43.68C120 44.768 117.952 45.44 115.52 45.696C113.088 45.888 110.656 46.208 108.224 46.656C107.072 46.848 105.952 47.136 104.864 47.52C103.776 47.84 102.816 48.32 101.984 48.96C101.152 49.536 100.48 50.336 99.9682 51.36C99.5202 52.32 99.2962 53.504 99.2962 54.912C99.2962 56.128 99.6482 57.152 100.352 57.984C101.056 58.816 101.888 59.488 102.848 60C103.872 60.448 104.96 60.768 106.112 60.96C107.328 61.152 108.416 61.248 109.376 61.248C110.592 61.248 111.904 61.088 113.312 60.768C114.72 60.448 116.032 59.904 117.248 59.136C118.528 58.368 119.584 57.408 120.416 56.256C121.248 55.04 121.664 53.568 121.664 51.84V43.68Z" fill="white"/>
<path d="M138.912 18.912H150.912L163.872 55.968H164.064L176.64 18.912H188.064L168.768 71.232C167.872 73.472 166.976 75.616 166.08 77.664C165.248 79.712 164.192 81.504 162.912 83.04C161.696 84.64 160.16 85.888 158.304 86.784C156.448 87.744 154.08 88.224 151.2 88.224C148.64 88.224 146.112 88.032 143.616 87.648V78.432C144.512 78.56 145.376 78.688 146.208 78.816C147.04 79.008 147.904 79.104 148.8 79.104C150.08 79.104 151.136 78.944 151.968 78.624C152.8 78.304 153.472 77.824 153.984 77.184C154.56 76.608 155.04 75.904 155.424 75.072C155.808 74.24 156.16 73.28 156.48 72.192L157.728 68.352L138.912 18.912Z" fill="white"/>
<path d="M191.189 18.912H199.349V14.784C199.349 11.648 199.733 9.12 200.501 7.2C201.269 5.216 202.293 3.712 203.573 2.688C204.853 1.6 206.293 0.896004 207.893 0.576004C209.557 0.192001 211.285 0 213.077 0C216.597 0 219.157 0.224001 220.757 0.672003V9.216C220.053 9.024 219.285 8.896 218.453 8.832C217.685 8.704 216.757 8.64001 215.669 8.64001C214.197 8.64001 212.917 8.992 211.829 9.696C210.805 10.4 210.293 11.776 210.293 13.824V18.912H219.605V27.072H210.293V68.544H199.349V27.072H191.189V18.912Z" fill="white"/>
<path d="M267.935 57.504C267.935 58.848 268.095 59.808 268.415 60.384C268.799 60.96 269.503 61.248 270.527 61.248C270.847 61.248 271.23 61.248 271.678 61.248C272.126 61.248 272.639 61.184 273.215 61.056V68.64C272.831 68.768 272.319 68.896 271.678 69.024C271.102 69.216 270.494 69.376 269.854 69.504C269.214 69.632 268.575 69.728 267.935 69.792C267.295 69.856 266.751 69.888 266.303 69.888C264.063 69.888 262.206 69.44 260.734 68.544C259.262 67.648 258.302 66.08 257.854 63.84C255.678 65.952 252.99 67.488 249.79 68.448C246.654 69.408 243.614 69.888 240.67 69.888C238.43 69.888 236.286 69.568 234.238 68.928C232.19 68.352 230.366 67.488 228.766 66.336C227.23 65.12 225.982 63.616 225.022 61.824C224.126 59.968 223.678 57.824 223.678 55.392C223.678 52.32 224.222 49.824 225.31 47.904C226.462 45.984 227.934 44.48 229.726 43.392C231.582 42.304 233.63 41.536 235.87 41.088C238.174 40.576 240.478 40.192 242.782 39.936C244.766 39.552 246.654 39.296 248.446 39.168C250.238 38.976 251.806 38.688 253.15 38.304C254.558 37.92 255.647 37.344 256.415 36.576C257.247 35.744 257.663 34.528 257.663 32.928C257.663 31.52 257.311 30.368 256.607 29.472C255.967 28.576 255.134 27.904 254.11 27.456C253.15 26.944 252.062 26.624 250.846 26.496C249.63 26.304 248.478 26.208 247.39 26.208C244.318 26.208 241.79 26.848 239.806 28.128C237.822 29.408 236.702 31.392 236.446 34.08H225.502C225.694 30.88 226.462 28.224 227.806 26.112C229.15 24 230.846 22.304 232.894 21.024C235.006 19.744 237.374 18.848 239.998 18.336C242.622 17.824 245.31 17.568 248.062 17.568C250.494 17.568 252.894 17.824 255.262 18.336C257.63 18.848 259.743 19.68 261.599 20.832C263.519 21.984 265.055 23.488 266.207 25.344C267.359 27.136 267.935 29.344 267.935 31.968V57.504ZM256.991 43.68C255.327 44.768 253.278 45.44 250.846 45.696C248.414 45.888 245.982 46.208 243.55 46.656C242.398 46.848 241.278 47.136 240.19 47.52C239.102 47.84 238.142 48.32 237.31 48.96C236.478 49.536 235.806 50.336 235.294 51.36C234.846 52.32 234.622 53.504 234.622 54.912C234.622 56.128 234.974 57.152 235.678 57.984C236.382 58.816 237.214 59.488 238.174 60C239.198 60.448 240.286 60.768 241.438 60.96C242.654 61.152 243.742 61.248 244.702 61.248C245.918 61.248 247.231 61.088 248.639 60.768C250.047 60.448 251.358 59.904 252.574 59.136C253.854 58.368 254.911 57.408 255.743 56.256C256.575 55.04 256.991 53.568 256.991 51.84V43.68Z" fill="white"/>
<path d="M279.71 18.912H289.982V28.512H290.174C290.494 27.168 291.102 25.856 291.998 24.576C292.958 23.296 294.078 22.144 295.358 21.12C296.702 20.032 298.174 19.168 299.774 18.528C301.374 17.888 303.006 17.568 304.67 17.568C305.95 17.568 306.814 17.6 307.262 17.664C307.774 17.728 308.286 17.792 308.798 17.856V28.416C308.03 28.288 307.23 28.192 306.398 28.128C305.63 28 304.862 27.936 304.094 27.936C302.238 27.936 300.478 28.32 298.814 29.088C297.214 29.792 295.806 30.88 294.59 32.352C293.374 33.76 292.414 35.52 291.71 37.632C291.006 39.744 290.654 42.176 290.654 44.928V68.544H279.71V18.912Z" fill="white"/>
<path d="M345.853 39.36C345.725 37.632 345.341 35.968 344.701 34.368C344.125 32.768 343.293 31.392 342.205 30.24C341.181 29.024 339.901 28.064 338.365 27.36C336.893 26.592 335.229 26.208 333.373 26.208C331.453 26.208 329.693 26.56 328.093 27.264C326.557 27.904 325.213 28.832 324.061 30.048C322.973 31.2 322.077 32.576 321.373 34.176C320.733 35.776 320.381 37.504 320.317 39.36H345.853ZM320.317 46.56C320.317 48.48 320.573 50.336 321.085 52.128C321.661 53.92 322.493 55.488 323.581 56.832C324.669 58.176 326.045 59.264 327.709 60.096C329.373 60.864 331.357 61.248 333.661 61.248C336.861 61.248 339.421 60.576 341.341 59.232C343.325 57.824 344.797 55.744 345.757 52.992H356.125C355.549 55.68 354.557 58.08 353.149 60.192C351.741 62.304 350.045 64.096 348.061 65.568C346.077 66.976 343.837 68.032 341.341 68.736C338.909 69.504 336.349 69.888 333.661 69.888C329.757 69.888 326.301 69.248 323.293 67.968C320.285 66.688 317.725 64.896 315.613 62.592C313.565 60.288 311.997 57.536 310.909 54.336C309.885 51.136 309.373 47.616 309.373 43.776C309.373 40.256 309.917 36.928 311.005 33.792C312.157 30.592 313.757 27.808 315.805 25.44C317.917 23.008 320.445 21.088 323.389 19.68C326.333 18.272 329.661 17.568 333.373 17.568C337.277 17.568 340.765 18.4 343.837 20.064C346.973 21.664 349.565 23.808 351.613 26.496C353.661 29.184 355.133 32.288 356.029 35.808C356.989 39.264 357.245 42.848 356.797 46.56H320.317Z" fill="white"/>
<path d="M365.117 18.912H375.389V28.512H375.581C375.901 27.168 376.509 25.856 377.405 24.576C378.365 23.296 379.484 22.144 380.764 21.12C382.108 20.032 383.581 19.168 385.181 18.528C386.781 17.888 388.413 17.568 390.077 17.568C391.357 17.568 392.221 17.6 392.669 17.664C393.181 17.728 393.692 17.792 394.204 17.856V28.416C393.436 28.288 392.637 28.192 391.805 28.128C391.037 28 390.269 27.936 389.501 27.936C387.645 27.936 385.885 28.32 384.221 29.088C382.621 29.792 381.213 30.88 379.997 32.352C378.781 33.76 377.821 35.52 377.117 37.632C376.413 39.744 376.061 42.176 376.061 44.928V68.544H365.117V18.912Z" fill="white"/>
</svg>
